<svg width="512" height="512" viewBox="0 0 512 512" fill="none" xmlns="http://www.w3.org/2000/svg">
<g id="logo">
<path id="Initial-S-outer" d="M37.668 85.332C37.668 123.625 68.707 154.668 107 154.668C145.293 154.668 176.332 123.625 176.332 85.332C176.332 47.043 145.293 16 107 16C68.707 16 37.668 47.043 37.668 85.332Z" fill="#156FCE"/>
<path id="Initial-S-inner" d="M107 170.668C154.062 170.668 192.332 132.395 192.332 85.332C192.332 38.2734 154.062 0 107 0C59.9375 0 21.668 38.2734 21.668 85.332C21.668 132.395 59.9375 170.668 107 170.668ZM107 32C136.418 32 160.332 55.9375 160.332 85.332C160.332 114.73 136.418 138.668 107 138.668C77.582 138.668 53.668 114.73 53.668 85.332C53.668 55.9375 77.582 32 107 32Z" fill="#156FCE"/>
<path id="Initial-E-outer" d="M37.668 426.668C37.668 464.957 68.707 496 107 496C145.293 496 176.332 464.957 176.332 426.668C176.332 388.375 145.293 357.332 107 357.332C68.707 357.332 37.668 388.375 37.668 426.668Z" fill="#156FCE"/>
<path id="Initial-E-inner" d="M107 512C154.062 512 192.332 473.727 192.332 426.668C192.332 379.605 154.062 341.332 107 341.332C59.9375 341.332 21.668 379.605 21.668 426.668C21.668 473.727 59.9375 512 107 512ZM107 373.332C136.418 373.332 160.332 397.27 160.332 426.668C160.332 456.062 136.418 480 107 480C77.582 480 53.668 456.062 53.668 426.668C53.668 397.27 77.582 373.332 107 373.332Z" fill="#156FCE"/>
<path id="dev-outer" d="M336.332 256C336.332 294.293 367.375 325.332 405.668 325.332C443.957 325.332 475 294.293 475 256C475 217.707 443.957 186.668 405.668 186.668C367.375 186.668 336.332 217.707 336.332 256Z" fill="#156FCE"/>
<path id="dev-inner" d="M405.668 341.332C452.727 341.332 491 303.062 491 256C491 208.938 452.727 170.668 405.668 170.668C358.605 170.668 320.332 208.938 320.332 256C320.332 303.062 358.605 341.332 405.668 341.332ZM405.668 202.668C435.086 202.668 459 226.602 459 256C459 285.398 435.086 309.332 405.668 309.332C376.246 309.332 352.332 285.398 352.332 256C352.332 226.602 376.246 202.668 405.668 202.668Z" fill="#156FCE"/>
<path id="top-bar" d="M355.297 245.762C362.723 245.762 369.934 241.898 373.859 234.988C379.684 224.77 376.098 211.734 365.879 205.887L167.93 93.0351C157.711 87.168 144.676 90.7539 138.828 101.012C133.004 111.23 136.59 124.266 146.809 130.113L344.762 242.965C348.09 244.863 351.715 245.762 355.297 245.762Z" fill="#156FCE"/>
<path id="bottom-bar" d="M157.367 421.762C160.953 421.762 164.578 420.863 167.906 418.965L365.859 306.113C376.078 300.289 379.66 287.254 373.836 277.012C368.035 266.773 354.98 263.168 344.738 269.035L146.785 381.887C136.566 387.711 132.984 400.746 138.809 410.988C142.754 417.898 149.965 421.762 157.367 421.762Z" fill="#156FCE"/>
<path id="S" d="M131.426 47.464C127.874 45.64 123.986 44.056 119.762 42.712C115.538 41.368 111.458 40.696 107.522 40.696C101.858 40.696 97.3458 41.992 93.9858 44.584C90.7218 47.176 89.0898 50.68 89.0898 55.096C89.0898 58.264 90.1458 60.952 92.2578 63.16C94.4658 65.368 97.2498 67.336 100.61 69.064C104.066 70.696 107.714 72.232 111.554 73.672C115.874 75.304 120.05 77.272 124.082 79.576C128.114 81.88 131.426 85 134.018 88.936C136.706 92.776 138.05 97.96 138.05 104.488C138.05 110.056 136.658 115.096 133.874 119.608C131.09 124.024 127.154 127.576 122.066 130.264C116.978 132.856 110.93 134.152 103.922 134.152C97.0098 134.152 90.5778 133.048 84.6258 130.84C78.7698 128.632 73.7778 126.088 69.6498 123.208L75.8418 112.12C79.2018 114.712 83.3298 116.968 88.2258 118.888C93.2178 120.808 97.9698 121.768 102.482 121.768C105.842 121.768 109.106 121.192 112.274 120.04C115.538 118.888 118.226 117.064 120.338 114.568C122.45 111.976 123.506 108.664 123.506 104.632C123.506 101.176 122.546 98.248 120.626 95.848C118.706 93.448 116.21 91.432 113.138 89.8C110.162 88.072 106.898 86.536 103.346 85.192C100.082 84.04 96.7698 82.696 93.4098 81.16C90.0498 79.624 86.9298 77.8 84.0498 75.688C81.2658 73.48 79.0098 70.792 77.2818 67.624C75.5538 64.456 74.6898 60.616 74.6898 56.104C74.6898 50.632 75.9858 45.88 78.5778 41.848C81.2658 37.72 84.9138 34.504 89.5218 32.2C94.1298 29.8 99.4578 28.504 105.506 28.312C112.13 28.312 117.986 29.128 123.074 30.76C128.258 32.392 132.818 34.36 136.754 36.664L131.426 47.464Z" fill="#F5F5F5"/>
<path id="E" d="M72.4369 370.888H140.117V384.28H86.4049V415.96H134.357V429.352H86.4049V461.464H142.133V475H72.4369V370.888Z" fill="#F5F5F5"/>
<path id="dev" d="M366.695 274.72C363.863 274.72 361.319 274.072 359.063 272.776C356.855 271.432 355.103 269.56 353.807 267.16C352.559 264.712 351.935 261.88 351.935 258.664C351.935 255.4 352.607 252.592 353.951 250.24C355.295 247.888 357.143 246.088 359.495 244.84C361.895 243.592 364.559 242.968 367.487 242.968C369.743 242.968 371.903 243.448 373.967 244.408C376.031 245.32 377.687 246.592 378.935 248.224V218.2H385.631V274H378.863V269.392C377.423 270.976 375.647 272.272 373.535 273.28C371.471 274.24 369.191 274.72 366.695 274.72ZM368.783 268.96C371.375 268.96 373.559 268.264 375.335 266.872C377.111 265.48 378.263 263.608 378.791 261.256V255.64C378.263 253.528 377.063 251.776 375.191 250.384C373.367 248.992 371.231 248.296 368.783 248.296C366.959 248.296 365.279 248.752 363.743 249.664C362.207 250.528 360.983 251.728 360.071 253.264C359.159 254.8 358.703 256.576 358.703 258.592C358.703 260.512 359.159 262.264 360.071 263.848C360.983 265.432 362.207 266.68 363.743 267.592C365.279 268.504 366.959 268.96 368.783 268.96ZM411.031 274.72C407.671 274.72 404.743 274.048 402.247 272.704C399.799 271.312 397.903 269.416 396.559 267.016C395.263 264.616 394.615 261.904 394.615 258.88C394.615 255.952 395.335 253.288 396.775 250.888C398.263 248.44 400.255 246.52 402.751 245.128C405.295 243.688 408.103 242.968 411.175 242.968C415.111 242.968 418.375 244.12 420.967 246.424C423.559 248.728 425.335 251.896 426.295 255.928L402.679 264.208C403.495 265.696 404.647 266.872 406.135 267.736C407.623 268.552 409.303 268.96 411.175 268.96C412.519 268.96 413.791 268.72 414.991 268.24C416.191 267.76 417.343 267.136 418.447 266.368L421.543 271.336C420.007 272.344 418.303 273.16 416.431 273.784C414.607 274.408 412.807 274.72 411.031 274.72ZM401.239 258.52C401.191 259.096 401.215 259.648 401.311 260.176L418.663 253.768C417.991 252.328 417.007 251.056 415.711 249.952C414.463 248.848 412.783 248.296 410.671 248.296C407.935 248.296 405.679 249.256 403.903 251.176C402.127 253.096 401.239 255.544 401.239 258.52ZM445.655 274.864L429.095 244.192H437.087L446.087 263.272L454.439 244.192H461.927L446.015 274.864H445.655Z" fill="#F5F5F5"/>
</g>
</svg>
