<svg width="1009" height="608" viewBox="0 0 1009 608" fill="none" xmlns="http://www.w3.org/2000/svg">
<g id="logo">
<g id="Group 1">
<path id="outer-box" d="M859.54 533.03C859.561 537.098 857.965 541.009 855.104 543.9C852.242 546.792 848.349 548.429 844.28 548.45H172.88C170.866 548.44 168.873 548.032 167.016 547.252C165.159 546.471 163.473 545.333 162.056 543.901C160.639 542.469 159.518 540.772 158.757 538.907C157.996 537.042 157.609 535.045 157.62 533.03V74.42C157.599 70.3516 159.194 66.4415 162.056 63.5497C164.918 60.6578 168.811 59.0213 172.88 59H844.28C846.294 59.0105 848.287 59.4176 850.144 60.1982C852.001 60.9788 853.686 62.1175 855.103 63.5493C856.52 64.9812 857.642 66.6781 858.403 68.5432C859.164 70.4084 859.55 72.4051 859.54 74.4196V74.42V533.03Z" fill="#E6E6E6"/>
<path id="outer-border" d="M833.62 526.52C833.62 530.474 832.049 534.267 829.253 537.063C826.457 539.859 822.664 541.43 818.71 541.43H162.91C158.956 541.43 155.163 539.859 152.367 537.063C149.571 534.267 148 530.474 148 526.52V83.14C148 79.1856 149.571 75.3932 152.367 72.597C155.163 69.8008 158.956 68.23 162.91 68.23H818.74C822.689 68.2379 826.474 69.8123 829.264 72.6076C832.053 75.4029 833.62 79.1908 833.62 83.14V526.52Z" fill="black"/>
<path id="inner-border" d="M183.05 87.48H799.27C801.617 87.48 803.868 88.4124 805.528 90.0721C807.188 91.7318 808.12 93.9828 808.12 96.33V511.61C808.12 513.957 807.188 516.208 805.528 517.868C803.868 519.528 801.617 520.46 799.27 520.46H183.05C180.703 520.46 178.452 519.528 176.792 517.868C175.132 516.208 174.2 513.957 174.2 511.61V96.33C174.2 93.9828 175.132 91.7318 176.792 90.0721C178.452 88.4124 180.703 87.48 183.05 87.48V87.48Z" fill="#156FCE"/>
<path id="inner-box" d="M190.85 97.44H790.8C791.962 97.44 793.113 97.6689 794.187 98.1137C795.26 98.5584 796.236 99.2103 797.058 100.032C797.88 100.854 798.532 101.83 798.976 102.903C799.421 103.977 799.65 105.128 799.65 106.29V499.41C799.65 500.572 799.421 501.723 798.976 502.797C798.532 503.87 797.88 504.846 797.058 505.668C796.236 506.49 795.26 507.142 794.187 507.586C793.113 508.031 791.962 508.26 790.8 508.26H190.85C188.503 508.26 186.252 507.328 184.592 505.668C182.932 504.008 182 501.757 182 499.41V106.29C182 103.943 182.932 101.692 184.592 100.032C186.252 98.3724 188.503 97.44 190.85 97.44V97.44Z" fill="white"/>
<path id="play-circle" d="M733.499 482.981C753.474 482.981 769.667 466.788 769.667 446.814C769.667 426.839 753.474 410.646 733.499 410.646C713.525 410.646 697.332 426.839 697.332 446.814C697.332 466.788 713.525 482.981 733.499 482.981Z" fill="#156FCE"/>
<path id="play-triangle" d="M752.284 446.165L723.455 429.521C723.341 429.455 723.212 429.421 723.081 429.421C722.95 429.421 722.82 429.455 722.707 429.521C722.593 429.587 722.498 429.681 722.433 429.795C722.367 429.909 722.332 430.038 722.332 430.169V463.458C722.332 463.59 722.367 463.719 722.433 463.833C722.498 463.946 722.593 464.041 722.707 464.107C722.82 464.172 722.95 464.207 723.081 464.207C723.212 464.207 723.341 464.172 723.455 464.107L752.284 447.462C752.398 447.396 752.493 447.302 752.558 447.188C752.624 447.074 752.659 446.945 752.659 446.814C752.659 446.682 752.624 446.553 752.558 446.439C752.493 446.326 752.398 446.231 752.284 446.165L723.455 429.521C723.341 429.455 723.212 429.421 723.081 429.421C722.95 429.421 722.82 429.455 722.707 429.521C722.593 429.587 722.498 429.681 722.433 429.795C722.367 429.909 722.332 430.038 722.332 430.169V463.458C722.332 463.59 722.367 463.719 722.433 463.833C722.498 463.946 722.593 464.041 722.707 464.107C722.82 464.172 722.95 464.207 723.081 464.207C723.212 464.207 723.341 464.172 723.455 464.107L752.284 447.462C752.398 447.396 752.493 447.302 752.558 447.188C752.624 447.074 752.659 446.945 752.659 446.814C752.659 446.682 752.624 446.553 752.558 446.439C752.493 446.326 752.398 446.231 752.284 446.165V446.165Z" fill="white"/>
<path id="text" d="M320.329 190.32C317.833 189.04 315.177 187.952 312.361 187.056C309.609 186.096 306.921 185.616 304.297 185.616C300.841 185.616 298.089 186.384 296.041 187.92C294.057 189.392 293.065 191.504 293.065 194.256C293.065 196.176 293.769 197.872 295.177 199.344C296.585 200.752 298.377 202 300.553 203.088C302.729 204.176 305.033 205.168 307.465 206.064C310.281 207.088 313.001 208.368 315.625 209.904C318.313 211.44 320.521 213.552 322.249 216.24C323.977 218.864 324.841 222.384 324.841 226.8C324.841 230.448 323.913 233.808 322.057 236.88C320.201 239.888 317.545 242.288 314.089 244.08C310.633 245.872 306.441 246.768 301.513 246.768C297.161 246.768 292.937 246.096 288.841 244.752C284.809 243.344 281.225 241.552 278.089 239.376L283.081 230.64C285.385 232.368 288.137 233.84 291.337 235.056C294.601 236.272 297.641 236.88 300.457 236.88C302.441 236.88 304.393 236.56 306.313 235.92C308.297 235.28 309.929 234.224 311.209 232.752C312.553 231.28 313.225 229.328 313.225 226.896C313.225 224.912 312.649 223.216 311.497 221.808C310.345 220.4 308.841 219.184 306.985 218.16C305.193 217.072 303.209 216.112 301.033 215.28C298.857 214.448 296.617 213.52 294.313 212.496C292.073 211.472 289.993 210.224 288.073 208.752C286.153 207.216 284.585 205.36 283.369 203.184C282.153 201.008 281.545 198.32 281.545 195.12C281.545 191.28 282.441 187.952 284.233 185.136C286.025 182.256 288.489 180.016 291.625 178.416C294.825 176.816 298.505 175.92 302.665 175.728C307.593 175.728 311.785 176.336 315.241 177.552C318.761 178.704 321.865 180.112 324.553 181.776L320.329 190.32ZM337.324 246V171.12H347.884V212.4C349.292 209.84 351.34 207.76 354.028 206.16C356.78 204.496 360.044 203.664 363.82 203.664C367.596 203.664 370.732 204.816 373.228 207.12C375.788 209.36 377.1 212.272 377.164 215.856V246H366.412V219.696C366.284 217.648 365.676 216.016 364.588 214.8C363.564 213.52 361.868 212.848 359.5 212.784C356.172 212.784 353.42 214.224 351.244 217.104C349.132 219.984 348.076 223.6 348.076 227.952V246H337.324ZM409.069 247.056C405.229 247.056 401.773 246.256 398.701 244.656C395.629 243.056 393.165 240.688 391.309 237.552C389.517 234.416 388.621 230.48 388.621 225.744C388.621 221.136 389.549 217.2 391.405 213.936C393.325 210.608 395.821 208.048 398.893 206.256C402.029 204.464 405.421 203.568 409.069 203.568C412.845 203.568 415.885 204.304 418.189 205.776C420.557 207.184 422.445 208.88 423.853 210.864L424.621 205.392H434.509V246H423.757V240.048C423.053 240.88 422.029 241.84 420.685 242.928C419.341 244.016 417.677 244.976 415.693 245.808C413.773 246.64 411.565 247.056 409.069 247.056ZM412.045 238.224C414.925 238.224 417.389 237.456 419.437 235.92C421.485 234.384 422.925 232.272 423.757 229.584V220.752C422.989 218.256 421.517 216.24 419.341 214.704C417.165 213.168 414.605 212.4 411.661 212.4C409.421 212.4 407.373 212.944 405.517 214.032C403.725 215.056 402.253 216.56 401.101 218.544C400.013 220.464 399.469 222.672 399.469 225.168C399.469 227.6 400.045 229.808 401.197 231.792C402.349 233.776 403.853 235.344 405.709 236.496C407.629 237.648 409.741 238.224 412.045 238.224ZM465.676 247.056C462.092 247.056 458.796 246.192 455.788 244.464C452.844 242.736 450.476 240.272 448.684 237.072C446.892 233.872 445.996 230.064 445.996 225.648C445.996 221.168 446.956 217.264 448.876 213.936C450.86 210.608 453.452 208.048 456.652 206.256C459.916 204.464 463.468 203.568 467.308 203.568C470.508 203.568 473.324 204.144 475.756 205.296C478.188 206.448 480.236 207.984 481.9 209.904V204.624H492.652V265.488H481.996V240.912C480.332 242.704 478.06 244.176 475.18 245.328C472.364 246.48 469.196 247.056 465.676 247.056ZM469.42 238.512C472.492 238.512 475.18 237.68 477.484 236.016C479.788 234.352 481.26 232.208 481.9 229.584V221.424C481.004 218.736 479.468 216.624 477.292 215.088C475.18 213.488 472.556 212.688 469.42 212.688C467.116 212.688 465.004 213.264 463.084 214.416C461.228 215.568 459.724 217.136 458.572 219.12C457.42 221.04 456.844 223.248 456.844 225.744C456.844 228.176 457.42 230.352 458.572 232.272C459.724 234.192 461.228 235.728 463.084 236.88C465.004 237.968 467.116 238.512 469.42 238.512ZM520.537 247.728C516.825 247.728 513.753 246.608 511.321 244.368C508.889 242.064 507.609 239.12 507.481 235.536V205.392H518.233V231.696C518.361 233.744 518.937 235.408 519.961 236.688C520.985 237.904 522.617 238.512 524.857 238.512C528.057 238.512 530.681 237.072 532.729 234.192C534.777 231.312 535.801 227.696 535.801 223.344V205.392H546.553V246H536.857L536.089 238.8C534.809 241.424 532.793 243.568 530.041 245.232C527.289 246.896 524.121 247.728 520.537 247.728ZM561.387 205.392H572.139V246H561.387V205.392ZM560.907 190.896C560.907 189.232 561.547 187.856 562.827 186.768C564.171 185.68 565.611 185.136 567.147 185.136C568.619 185.136 569.995 185.68 571.275 186.768C572.555 187.856 573.195 189.232 573.195 190.896C573.195 192.56 572.555 193.936 571.275 195.024C569.995 196.048 568.619 196.56 567.147 196.56C565.611 196.56 564.171 196.048 562.827 195.024C561.547 193.936 560.907 192.56 560.907 190.896ZM586.887 171.12H597.639V246H586.887V171.12ZM612.387 171.12H623.139V246H612.387V171.12ZM637.887 171.12H648.639V246H637.887V171.12ZM682.779 247.056C677.979 247.056 673.883 246.128 670.491 244.272C667.099 242.416 664.507 239.856 662.715 236.592C660.923 233.264 660.027 229.52 660.027 225.36C660.027 221.328 661.051 217.68 663.099 214.416C665.147 211.088 667.899 208.464 671.355 206.544C674.811 204.56 678.683 203.568 682.971 203.568C688.539 203.568 693.115 205.2 696.699 208.464C700.347 211.664 702.779 216.208 703.995 222.096L672.795 232.656C675.099 236.112 678.491 237.84 682.971 237.84C684.635 237.84 686.203 237.552 687.675 236.976C689.211 236.4 690.683 235.632 692.091 234.672L696.987 242.64C694.811 243.984 692.475 245.072 689.979 245.904C687.483 246.672 685.083 247.056 682.779 247.056ZM670.587 224.784C670.587 225.296 670.619 225.84 670.683 226.416L691.995 218.832C691.227 217.04 690.075 215.472 688.539 214.128C687.003 212.72 684.859 212.016 682.107 212.016C678.715 212.016 675.931 213.2 673.755 215.568C671.643 217.936 670.587 221.008 670.587 224.784ZM311.923 272.112H358.291V282.864H323.155V301.488H354.451V312.24H323.155V331.248H359.635V342H311.923V272.112ZM389.51 343.056C385.67 343.056 382.246 342.16 379.238 340.368C376.23 338.576 373.862 336.048 372.134 332.784C370.406 329.456 369.542 325.552 369.542 321.072C369.542 316.528 370.47 312.656 372.326 309.456C374.182 306.256 376.71 303.824 379.91 302.16C383.11 300.432 386.758 299.568 390.854 299.568C393.798 299.568 396.582 300.144 399.206 301.296C401.894 302.384 404.006 303.888 405.542 305.808V267.12H416.198V342H405.446V336.528C403.462 338.448 401.126 340.016 398.438 341.232C395.814 342.448 392.838 343.056 389.51 343.056ZM392.966 333.936C396.102 333.936 398.726 333.168 400.838 331.632C403.014 330.096 404.55 327.952 405.446 325.2V316.56C404.678 314.064 403.142 312.016 400.838 310.416C398.598 308.816 395.974 308.016 392.966 308.016C390.662 308.016 388.55 308.592 386.63 309.744C384.774 310.832 383.27 312.336 382.118 314.256C380.966 316.176 380.39 318.384 380.39 320.88C380.39 323.312 380.966 325.52 382.118 327.504C383.27 329.488 384.774 331.056 386.63 332.208C388.55 333.36 390.662 333.936 392.966 333.936ZM458.387 301.392L467.987 323.664L476.723 301.392H487.283L468.755 344.4L455.699 316.944L443.795 344.4L425.075 301.392H435.635L445.043 322.992L451.859 307.44L449.075 301.392H458.387ZM511.678 343.056C507.838 343.056 504.382 342.256 501.31 340.656C498.238 339.056 495.774 336.688 493.918 333.552C492.126 330.416 491.23 326.48 491.23 321.744C491.23 317.136 492.158 313.2 494.014 309.936C495.934 306.608 498.43 304.048 501.502 302.256C504.638 300.464 508.03 299.568 511.678 299.568C515.454 299.568 518.494 300.304 520.798 301.776C523.166 303.184 525.054 304.88 526.462 306.864L527.23 301.392H537.118V342H526.366V336.048C525.662 336.88 524.638 337.84 523.294 338.928C521.95 340.016 520.286 340.976 518.302 341.808C516.382 342.64 514.174 343.056 511.678 343.056ZM514.654 334.224C517.534 334.224 519.998 333.456 522.046 331.92C524.094 330.384 525.534 328.272 526.366 325.584V316.752C525.598 314.256 524.126 312.24 521.95 310.704C519.774 309.168 517.214 308.4 514.27 308.4C512.03 308.4 509.982 308.944 508.126 310.032C506.334 311.056 504.862 312.56 503.71 314.544C502.622 316.464 502.078 318.672 502.078 321.168C502.078 323.6 502.654 325.808 503.806 327.792C504.958 329.776 506.462 331.344 508.318 332.496C510.238 333.648 512.35 334.224 514.654 334.224ZM561.661 301.392L562.429 310.8C563.581 308.496 565.149 306.512 567.133 304.848C569.117 303.12 571.133 301.808 573.181 300.912C575.293 300.016 577.021 299.568 578.365 299.568L577.885 310.32C574.813 310.064 572.125 310.608 569.821 311.952C567.581 313.296 565.821 315.12 564.541 317.424C563.325 319.664 562.717 322.032 562.717 324.528V342H551.965V301.392H561.661ZM604.198 343.056C600.358 343.056 596.934 342.16 593.926 340.368C590.918 338.576 588.55 336.048 586.822 332.784C585.094 329.456 584.23 325.552 584.23 321.072C584.23 316.528 585.158 312.656 587.014 309.456C588.87 306.256 591.398 303.824 594.598 302.16C597.798 300.432 601.446 299.568 605.542 299.568C608.486 299.568 611.27 300.144 613.894 301.296C616.582 302.384 618.694 303.888 620.23 305.808V267.12H630.886V342H620.134V336.528C618.15 338.448 615.814 340.016 613.126 341.232C610.502 342.448 607.526 343.056 604.198 343.056ZM607.654 333.936C610.79 333.936 613.414 333.168 615.526 331.632C617.702 330.096 619.238 327.952 620.134 325.2V316.56C619.366 314.064 617.83 312.016 615.526 310.416C613.286 308.816 610.662 308.016 607.654 308.016C605.35 308.016 603.238 308.592 601.318 309.744C599.462 310.832 597.958 312.336 596.806 314.256C595.654 316.176 595.078 318.384 595.078 320.88C595.078 323.312 595.654 325.52 596.806 327.504C597.958 329.488 599.462 331.056 601.318 332.208C603.238 333.36 605.35 333.936 607.654 333.936ZM657.907 342.864C654.835 342.864 651.891 342.32 649.075 341.232C646.323 340.144 643.987 338.544 642.067 336.432L646.675 330.384C648.467 332.112 650.227 333.392 651.955 334.224C653.747 334.992 655.443 335.376 657.043 335.376C658.835 335.376 660.371 335.056 661.651 334.416C662.995 333.712 663.667 332.56 663.667 330.96C663.667 329.68 663.219 328.688 662.323 327.984C661.427 327.216 660.275 326.608 658.867 326.16C657.459 325.648 655.987 325.168 654.451 324.72C650.931 323.632 648.307 322.032 646.579 319.92C644.851 317.808 643.987 315.376 643.987 312.624C643.987 310.512 644.531 308.496 645.619 306.576C646.707 304.592 648.339 302.96 650.515 301.68C652.755 300.4 655.603 299.76 659.059 299.76C662.067 299.76 664.723 300.112 667.027 300.816C669.331 301.52 671.475 302.64 673.459 304.176L669.331 310.608C668.179 309.52 666.803 308.688 665.203 308.112C663.667 307.472 662.259 307.12 660.979 307.056C659.251 306.992 657.811 307.344 656.659 308.112C655.507 308.88 654.931 309.904 654.931 311.184C654.867 312.464 655.283 313.488 656.179 314.256C657.139 315.024 658.355 315.632 659.827 316.08C661.299 316.528 662.771 317.008 664.243 317.52C667.187 318.48 669.619 319.856 671.539 321.648C673.459 323.376 674.419 325.808 674.419 328.944C674.419 331.44 673.811 333.744 672.595 335.856C671.379 337.968 669.555 339.664 667.123 340.944C664.691 342.224 661.619 342.864 657.907 342.864Z" fill="#156FCE"/>
</g>
</g>
</svg>
